<svg version="1.1" id="Layer_1" xmlns="http://www.w3.org/2000/svg" xmlns:xlink="http://www.w3.org/1999/xlink" x="0px" y="0px"
	 width="100%" viewBox="0 0 1280 640" enable-background="new 0 0 1280 640" xml:space="preserve">
<path fill="#FFFFFF" opacity="1.000000" stroke="none" 
	d="
M862.000000,641.000000 
	C574.703979,641.000000 287.907990,641.000000 1.055983,641.000000 
	C1.055983,427.731750 1.055983,214.463501 1.055983,1.097620 
	C427.546051,1.097620 854.092102,1.097620 1280.819092,1.097620 
	C1280.819092,214.333206 1280.819092,427.666595 1280.819092,641.000000 
	C1141.463501,641.000000 1001.981750,641.000000 862.000000,641.000000 
M1141.639038,288.252075 
	C1138.186035,286.772797 1134.732910,285.293549 1130.820068,283.272217 
	C1126.857422,282.052460 1124.154419,279.645325 1122.861450,275.557556 
	C1122.242065,273.599243 1120.975464,271.845642 1119.960938,269.272461 
	C1116.676392,262.436981 1113.391846,255.601501 1110.039917,248.050797 
	C1108.737061,245.308624 1107.434326,242.566452 1105.681519,238.877350 
	C1102.745972,245.577499 1100.300293,251.159363 1097.314209,257.202057 
	C1093.532837,265.111511 1089.751465,273.020996 1085.286011,281.148285 
	C1080.528931,283.463989 1075.771729,285.779694 1070.302002,288.186035 
	C1062.018677,292.000946 1053.735352,295.815887 1044.413818,300.108978 
	C1053.553711,304.188904 1061.508911,307.739960 1069.997803,311.770477 
	C1075.322388,314.203247 1080.646973,316.636017 1086.315430,319.675720 
	C1090.148071,327.560455 1093.980591,335.445160 1097.929199,344.034760 
	C1100.384399,349.404388 1102.839600,354.773987 1105.851807,361.361938 
	C1107.847778,356.821899 1109.349854,353.405121 1111.150391,349.324524 
	C1114.123047,342.890442 1117.095581,336.456329 1120.594849,329.568848 
	C1122.976929,324.815247 1124.096680,319.117340 1130.721436,316.935791 
	C1134.521973,315.100342 1138.322510,313.264893 1142.845337,311.214996 
	C1150.669800,307.608246 1158.494263,304.001526 1167.325806,299.930573 
	C1158.126953,295.871216 1150.098633,292.328369 1141.639038,288.252075 
M407.500397,253.990234 
	C401.071777,253.990234 394.643188,253.990234 388.202057,253.990234 
	C388.202057,287.252136 388.202057,319.965973 388.202057,352.622375 
	C392.137665,352.622375 395.829559,352.622375 399.702209,352.622375 
	C399.702209,345.090607 399.702209,337.946899 399.702209,330.803223 
	C399.702209,323.538879 399.702209,316.274536 399.702209,308.686737 
	C405.720581,308.686737 411.183014,308.626465 416.643707,308.699249 
	C428.141083,308.852448 432.255646,311.850342 435.976349,322.883453 
	C438.997375,331.841797 441.823364,340.866455 444.917694,349.798737 
	C445.352173,351.052979 446.722198,352.716980 447.833984,352.863281 
	C450.997040,353.279694 454.250458,353.009430 457.831573,353.009430 
	C455.243591,344.911865 452.884338,337.486328 450.496582,330.069916 
	C447.456848,320.628265 445.255920,310.664490 434.534119,305.674957 
	C436.177429,304.869537 437.036652,304.391632 437.938202,304.015076 
	C450.497375,298.769257 455.530823,290.071991 453.928528,276.354523 
	C452.573456,264.753784 444.905762,256.626740 432.388885,254.954727 
	C424.523376,253.904053 416.469543,254.263443 407.500397,253.990234 
M215.275711,349.256866 
	C221.555420,354.448822 228.945618,354.679596 236.553192,354.092133 
	C244.527512,353.476410 250.199814,349.074829 254.619934,342.325836 
	C259.500031,353.294128 266.566559,356.206696 276.074585,351.525024 
	C275.613708,349.114166 275.135071,346.610596 274.668549,344.170166 
	C266.172272,344.694183 265.145050,343.698395 265.132874,335.355988 
	C265.114410,322.705841 265.168610,310.055145 265.065399,297.405731 
	C265.005676,290.083740 262.117188,284.120636 255.638443,280.359467 
	C242.272079,272.599762 220.116867,277.525208 210.933655,290.406128 
	C212.802856,292.889496 214.724411,295.442444 216.955429,298.406555 
	C224.332993,288.570282 233.720566,285.235901 245.013779,287.019806 
	C251.688828,288.074249 255.429443,293.386108 253.838821,299.558655 
	C252.616730,304.301086 248.541656,305.778290 244.528015,306.867767 
	C237.649048,308.735046 230.499161,309.723389 223.764877,311.981079 
	C207.178635,317.541748 202.854202,335.727844 215.275711,349.256866 
M1001.281250,278.046631 
	C1000.302795,277.851013 999.325745,277.647522 998.345581,277.460938 
	C978.815552,273.743500 962.375427,284.230225 958.499878,303.629181 
	C957.219666,310.037323 957.044556,316.939026 957.828735,323.438324 
	C960.798462,348.049744 980.948730,360.471558 1004.592834,352.644440 
	C1012.376770,350.067657 1017.848572,344.884552 1021.018616,336.892487 
	C1018.242676,335.350342 1015.696533,333.935822 1013.216919,332.558289 
	C1004.569580,343.879669 994.108215,347.325867 982.629883,342.932770 
	C973.687378,339.510223 968.530945,330.095367 969.297729,318.139893 
	C983.393799,318.139893 997.519531,318.139923 1011.645264,318.139923 
	C1022.253174,318.139923 1022.253235,318.139893 1021.872253,307.306274 
	C1021.328857,291.852722 1015.369751,283.099121 1001.281250,278.046631 
M516.039001,345.411530 
	C516.803467,344.523651 517.567932,343.635773 518.522034,342.527557 
	C523.136292,353.259705 530.812927,356.358185 539.750549,351.437164 
	C539.344849,349.106781 538.928162,346.713196 538.521973,344.380005 
	C529.240906,344.346039 528.985474,344.076141 528.981323,334.628326 
	C528.976013,322.464539 529.051697,310.300018 528.936401,298.137268 
	C528.865906,290.702301 526.226013,284.423798 519.565918,280.470398 
	C506.322235,272.609070 484.163330,277.402740 474.706787,290.370850 
	C476.530670,292.843048 478.424042,295.409393 480.226013,297.851868 
	C480.960724,297.539764 481.151611,297.512909 481.260162,297.404022 
	C482.196808,296.464539 483.133514,295.524231 484.042603,294.558228 
	C491.146271,287.009552 500.057373,285.489899 509.730988,287.207520 
	C514.436646,288.043030 517.364319,291.110596 517.844666,296.065521 
	C518.314514,300.913055 515.916382,304.152405 511.555359,305.666260 
	C507.494141,307.076019 503.196625,307.788574 499.066956,309.021729 
	C493.212067,310.769989 486.934052,311.843781 481.688904,314.745819 
	C468.484222,322.051758 468.757904,343.597870 481.736481,351.163971 
	C492.060699,357.182678 507.497711,354.828735 516.039001,345.411530 
M652.022278,324.654419 
	C652.022278,322.630127 652.022278,320.605865 652.022278,318.581573 
	C654.460144,319.422913 655.618042,320.540710 656.669128,321.751282 
	C664.200745,330.425537 672.273254,338.706421 679.040466,347.942749 
	C684.002747,354.715576 689.846680,352.714569 697.347229,352.884705 
	C685.531799,339.033081 674.669556,326.298859 663.653198,313.384003 
	C673.748657,301.925446 683.716309,290.611969 694.377625,278.511108 
	C682.091309,277.827454 682.078796,277.816254 675.894897,284.729309 
	C669.456299,291.927094 663.066345,299.168457 656.601685,306.342682 
	C655.516235,307.547272 654.159668,308.507629 651.847168,310.523224 
	C651.847168,288.786469 651.847168,268.599548 651.847168,248.447021 
	C647.999207,248.447021 644.727417,248.447021 641.255554,248.447021 
	C641.255554,283.356445 641.255554,318.050537 641.255554,352.752319 
	C644.929688,352.752319 648.336731,352.752319 652.022278,352.752319 
	C652.022278,343.539215 652.022278,334.576935 652.022278,324.654419 
M148.323425,352.955811 
	C148.575607,350.390656 149.028885,347.826782 149.045609,345.260101 
	C149.123276,333.342224 149.079971,321.423553 149.079971,309.063324 
	C163.370483,309.063324 177.091156,309.063324 190.668747,309.063324 
	C190.668747,305.709198 190.668747,302.814392 190.668747,299.671143 
	C176.720016,299.671143 163.094345,299.671143 149.308136,299.671143 
	C149.308136,287.647858 149.308136,275.895020 149.308136,263.675323 
	C164.757172,263.675323 179.986374,263.675323 195.467255,263.675323 
	C195.467255,260.306854 195.467255,257.402008 195.467255,254.272827 
	C176.135361,254.272827 156.948868,254.272827 137.669281,254.272827 
	C137.669281,287.279968 137.669281,319.999237 137.669281,353.011841 
	C141.070770,353.011841 144.216187,353.011841 148.323425,352.955811 
M554.993896,316.500000 
	C554.993896,328.600464 554.993896,340.700928 554.993896,352.725616 
	C558.979919,352.725616 562.389038,352.725616 566.022278,352.725616 
	C566.022278,350.804260 566.020142,349.161438 566.022583,347.518616 
	C566.040222,335.519226 565.798462,323.512482 566.138611,311.522217 
	C566.642456,293.765808 576.876160,284.641937 593.120239,286.935944 
	C598.839661,287.743652 602.714966,290.798645 603.939880,296.452209 
	C604.706909,299.992371 604.969055,303.697937 604.995789,307.332672 
	C605.106873,322.443939 605.042480,337.556488 605.042480,352.775208 
	C608.935974,352.775208 612.345886,352.775208 615.908081,352.775208 
	C615.908081,334.752350 616.198242,316.952393 615.767334,299.169891 
	C615.591431,291.912201 613.125122,285.059052 606.433960,280.742676 
	C594.903259,273.304443 577.361511,276.352448 569.005188,287.217010 
	C568.206970,288.254791 567.315369,289.220703 566.467102,290.220001 
	C566.094727,290.051331 565.722351,289.882629 565.349976,289.713959 
	C565.349976,285.958740 565.349976,282.203522 565.349976,278.441345 
	C561.697510,278.441345 558.582397,278.441345 555.550476,278.441345 
	C555.328247,278.931274 555.084473,279.218628 555.083435,279.506866 
	C555.039978,291.504547 555.018250,303.502258 554.993896,316.500000 
M887.022339,342.477905 
	C887.030273,332.644745 886.710510,322.795868 887.181519,312.984924 
	C887.424255,307.926941 888.332336,302.631744 890.244751,297.980255 
	C894.003174,288.838715 904.858948,284.577423 915.648560,287.142303 
	C922.703430,288.819366 925.923523,294.274841 926.024170,304.875977 
	C926.081116,310.875366 926.041504,316.875732 926.042358,322.875641 
	C926.043762,332.818481 926.042664,342.761322 926.042664,352.759705 
	C929.969238,352.759705 933.380249,352.759705 936.905151,352.759705 
	C936.905151,334.716034 937.266602,316.907623 936.749451,299.124725 
	C936.498779,290.505981 933.248108,282.633820 924.300476,279.124420 
	C914.139038,275.138885 897.564209,275.106506 889.099731,288.468140 
	C888.707520,289.087280 888.099182,289.569519 886.539185,291.247192 
	C886.539185,286.079803 886.539185,282.253693 886.539185,278.457764 
	C882.653198,278.457764 879.541321,278.457764 876.295959,278.457764 
	C876.295959,303.399841 876.295959,328.115112 876.295959,352.707397 
	C880.017090,352.707397 883.428894,352.707397 887.022278,352.707397 
	C887.022278,349.429413 887.022278,346.448578 887.022339,342.477905 
M850.049194,282.690247 
	C849.949402,281.265839 849.849548,279.841461 849.751953,278.449219 
	C846.045654,278.449219 842.773865,278.449219 839.015991,278.449219 
	C839.015991,280.264496 839.016846,281.887451 839.015808,283.510406 
	C839.007996,295.174957 839.238953,306.846924 838.875793,318.500397 
	C838.727966,323.241821 837.914185,328.168823 836.307251,332.615234 
	C832.995605,341.778412 823.132446,346.482056 813.037109,344.444153 
	C804.559265,342.732758 801.125061,337.603485 801.096680,326.481995 
	C801.067749,315.150787 801.089600,303.819397 801.089294,292.488098 
	C801.089172,287.870941 801.089294,283.253815 801.089294,278.525269 
	C797.175415,278.525269 793.780518,278.525269 790.194092,278.525269 
	C790.194092,296.617035 789.839355,314.426819 790.343994,332.212250 
	C790.595642,341.080139 794.111206,348.928070 803.328552,352.342773 
	C813.474792,356.101562 829.560364,356.081818 837.220581,342.548279 
	C837.561768,341.945465 838.264404,341.547241 839.748657,340.176208 
	C839.748657,345.177216 839.748657,349.023163 839.748657,352.770599 
	C843.530762,352.770599 846.633484,352.770599 850.049194,352.770599 
	C850.049194,329.576019 850.049194,306.615479 850.049194,282.690247 
M731.955872,313.500000 
	C731.955872,326.586090 731.955872,339.672211 731.955872,352.705078 
	C736.065796,352.705078 739.625305,352.705078 743.577515,352.705078 
	C743.577515,323.037506 743.577515,293.663574 743.577515,263.828339 
	C754.035095,263.828339 764.093872,263.828339 774.171997,263.828339 
	C774.171997,260.294281 774.171997,257.235413 774.171997,254.286758 
	C749.601379,254.286758 725.369324,254.286758 701.276978,254.286758 
	C701.276978,257.647369 701.276978,260.710938 701.276978,264.182312 
	C711.662903,264.182312 721.723755,264.182312 731.955872,264.182312 
	C731.955872,280.574646 731.955872,296.537323 731.955872,313.500000 
M335.299988,278.217072 
	C333.034393,278.217072 330.768768,278.217072 328.502075,278.217072 
	C328.502075,303.523987 328.502075,328.190338 328.502075,352.685425 
	C332.258545,352.685425 335.651489,352.685425 339.220856,352.685425 
	C339.220856,348.040253 339.147461,343.721893 339.235199,339.406830 
	C339.461548,328.274078 339.146912,317.085663 340.178497,306.024902 
	C341.562927,291.181427 351.793518,285.025177 365.922913,289.577576 
	C366.523041,289.770966 367.161041,289.846741 368.247284,290.075317 
	C369.248444,286.834717 370.201385,283.750275 371.386230,279.915131 
	C358.014862,275.704834 346.837646,276.633270 339.243317,290.400726 
	C338.856781,286.875519 339.105194,284.037720 338.735504,281.282837 
	C338.585938,280.168182 337.087158,279.234619 335.299988,278.217072 
M291.148529,291.513641 
	C291.148529,311.922974 291.148529,332.332336 291.148529,352.764130 
	C295.142639,352.764130 298.555237,352.764130 301.862427,352.764130 
	C301.862427,327.817169 301.862427,303.119202 301.862427,278.637878 
	C298.101288,278.637878 294.709808,278.637878 291.148529,278.637878 
	C291.148529,282.873993 291.148529,286.697021 291.148529,291.513641 
M293.504517,263.227234 
	C300.646515,264.921417 305.880951,260.907898 304.601837,254.672531 
	C303.853455,251.024231 301.529633,248.823196 297.862671,248.411804 
	C294.313446,248.013611 291.219269,249.137222 289.720184,252.646286 
	C287.942383,256.807831 288.854218,260.370453 293.504517,263.227234 
z"/>
<path fill="#060606" opacity="1.000000" stroke="none" 
	d="
M408.000305,253.990234 
	C416.469543,254.263443 424.523376,253.904053 432.388885,254.954727 
	C444.905762,256.626740 452.573456,264.753784 453.928528,276.354523 
	C455.530823,290.071991 450.497375,298.769257 437.938202,304.015076 
	C437.036652,304.391632 436.177429,304.869537 434.534119,305.674957 
	C445.255920,310.664490 447.456848,320.628265 450.496582,330.069916 
	C452.884338,337.486328 455.243591,344.911865 457.831573,353.009430 
	C454.250458,353.009430 450.997040,353.279694 447.833984,352.863281 
	C446.722198,352.716980 445.352173,351.052979 444.917694,349.798737 
	C441.823364,340.866455 438.997375,331.841797 435.976349,322.883453 
	C432.255646,311.850342 428.141083,308.852448 416.643707,308.699249 
	C411.183014,308.626465 405.720581,308.686737 399.702209,308.686737 
	C399.702209,316.274536 399.702209,323.538879 399.702209,330.803223 
	C399.702209,337.946899 399.702209,345.090607 399.702209,352.622375 
	C395.829559,352.622375 392.137665,352.622375 388.202057,352.622375 
	C388.202057,319.965973 388.202057,287.252136 388.202057,253.990234 
	C394.643188,253.990234 401.071777,253.990234 408.000305,253.990234 
M419.440796,263.956573 
	C412.883789,263.956573 406.326782,263.956573 400.015869,263.956573 
	C400.015869,275.949951 400.015869,287.182800 400.015869,298.083527 
	C410.100067,298.083527 419.877991,298.472321 429.605408,297.939484 
	C435.556854,297.613495 439.490143,293.759918 441.134644,287.808685 
	C445.099182,273.461517 438.197327,264.136871 423.409149,263.960297 
	C422.411926,263.948364 421.414459,263.957336 419.440796,263.956573 
z"/>
<path fill="#060606" opacity="1.000000" stroke="none" 
	d="
M214.992477,349.031006 
	C202.854202,335.727844 207.178635,317.541748 223.764877,311.981079 
	C230.499161,309.723389 237.649048,308.735046 244.528015,306.867767 
	C248.541656,305.778290 252.616730,304.301086 253.838821,299.558655 
	C255.429443,293.386108 251.688828,288.074249 245.013779,287.019806 
	C233.720566,285.235901 224.332993,288.570282 216.955429,298.406555 
	C214.724411,295.442444 212.802856,292.889496 210.933655,290.406128 
	C220.116867,277.525208 242.272079,272.599762 255.638443,280.359467 
	C262.117188,284.120636 265.005676,290.083740 265.065399,297.405731 
	C265.168610,310.055145 265.114410,322.705841 265.132874,335.355988 
	C265.145050,343.698395 266.172272,344.694183 274.668549,344.170166 
	C275.135071,346.610596 275.613708,349.114166 276.074585,351.525024 
	C266.566559,356.206696 259.500031,353.294128 254.619934,342.325836 
	C250.199814,349.074829 244.527512,353.476410 236.553192,354.092133 
	C228.945618,354.679596 221.555420,354.448822 214.992477,349.031006 
M254.010147,327.949860 
	C254.010147,323.049561 254.010147,318.149261 254.010147,313.797821 
	C246.786041,315.494781 239.601120,317.136566 232.444214,318.892487 
	C230.372040,319.400909 228.273758,320.021790 226.371750,320.963440 
	C220.898071,323.673279 218.971985,328.148529 219.985809,335.192505 
	C220.733368,340.386444 224.243881,343.941833 229.742752,345.074066 
	C241.710938,347.538361 250.163971,341.857239 254.010147,327.949860 
z"/>
<path fill="#050505" opacity="1.000000" stroke="none" 
	d="
M1001.681519,278.140808 
	C1015.369751,283.099121 1021.328857,291.852722 1021.872253,307.306274 
	C1022.253235,318.139893 1022.253174,318.139923 1011.645264,318.139923 
	C997.519531,318.139923 983.393799,318.139893 969.297729,318.139893 
	C968.530945,330.095367 973.687378,339.510223 982.629883,342.932770 
	C994.108215,347.325867 1004.569580,343.879669 1013.216919,332.558289 
	C1015.696533,333.935822 1018.242676,335.350342 1021.018616,336.892487 
	C1017.848572,344.884552 1012.376770,350.067657 1004.592834,352.644440 
	C980.948730,360.471558 960.798462,348.049744 957.828735,323.438324 
	C957.044556,316.939026 957.219666,310.037323 958.499878,303.629181 
	C962.375427,284.230225 978.815552,273.743500 998.345581,277.460938 
	C999.325745,277.647522 1000.302795,277.851013 1001.681519,278.140808 
M977.786560,290.127533 
	C971.704895,294.868256 969.984680,301.511902 969.264771,308.731934 
	C983.393372,308.731934 997.129211,308.731934 1011.078430,308.731934 
	C1010.823669,306.639160 1010.688416,304.818115 1010.370117,303.029633 
	C1008.566223,292.893555 1004.389526,288.255737 995.643250,286.672577 
	C989.535645,285.566986 983.757446,286.414398 977.786560,290.127533 
z"/>
<path fill="#060606" opacity="1.000000" stroke="none" 
	d="
M515.821594,345.705566 
	C507.497711,354.828735 492.060699,357.182678 481.736481,351.163971 
	C468.757904,343.597870 468.484222,322.051758 481.688904,314.745819 
	C486.934052,311.843781 493.212067,310.769989 499.066956,309.021729 
	C503.196625,307.788574 507.494141,307.076019 511.555359,305.666260 
	C515.916382,304.152405 518.314514,300.913055 517.844666,296.065521 
	C517.364319,291.110596 514.436646,288.043030 509.730988,287.207520 
	C500.057373,285.489899 491.146271,287.009552 484.042603,294.558228 
	C483.133514,295.524231 482.196808,296.464539 481.260162,297.404022 
	C481.151611,297.512909 480.960724,297.539764 480.226013,297.851868 
	C478.424042,295.409393 476.530670,292.843048 474.706787,290.370850 
	C484.163330,277.402740 506.322235,272.609070 519.565918,280.470398 
	C526.226013,284.423798 528.865906,290.702301 528.936401,298.137268 
	C529.051697,310.300018 528.976013,322.464539 528.981323,334.628326 
	C528.985474,344.076141 529.240906,344.346039 538.521973,344.380005 
	C538.928162,346.713196 539.344849,349.106781 539.750549,351.437164 
	C530.812927,356.358185 523.136292,353.259705 518.522034,342.527557 
	C517.567932,343.635773 516.803467,344.523651 515.821594,345.705566 
M484.247009,337.574524 
	C486.826080,339.981781 489.005066,343.474487 492.056824,344.599304 
	C502.551880,348.467529 513.982422,342.549347 516.741455,331.684753 
	C518.241394,325.778290 518.015198,319.433533 518.537048,313.625488 
	C510.477539,315.511414 503.292450,317.187683 496.109863,318.874573 
	C485.503845,321.365509 482.470184,325.867249 484.247009,337.574524 
z"/>
<path fill="#030303" opacity="1.000000" stroke="none" 
	d="
M652.022278,325.134521 
	C652.022278,334.576935 652.022278,343.539215 652.022278,352.752319 
	C648.336731,352.752319 644.929688,352.752319 641.255554,352.752319 
	C641.255554,318.050537 641.255554,283.356445 641.255554,248.447021 
	C644.727417,248.447021 647.999207,248.447021 651.847168,248.447021 
	C651.847168,268.599548 651.847168,288.786469 651.847168,310.523224 
	C654.159668,308.507629 655.516235,307.547272 656.601685,306.342682 
	C663.066345,299.168457 669.456299,291.927094 675.894897,284.729309 
	C682.078796,277.816254 682.091309,277.827454 694.377625,278.511108 
	C683.716309,290.611969 673.748657,301.925446 663.653198,313.384003 
	C674.669556,326.298859 685.531799,339.033081 697.347229,352.884705 
	C689.846680,352.714569 684.002747,354.715576 679.040466,347.942749 
	C672.273254,338.706421 664.200745,330.425537 656.669128,321.751282 
	C655.618042,320.540710 654.460144,319.422913 652.022278,318.581573 
	C652.022278,320.605865 652.022278,322.630127 652.022278,325.134521 
z"/>
<path fill="#080808" opacity="1.000000" stroke="none" 
	d="
M147.842514,352.983826 
	C144.216187,353.011841 141.070770,353.011841 137.669281,353.011841 
	C137.669281,319.999237 137.669281,287.279968 137.669281,254.272827 
	C156.948868,254.272827 176.135361,254.272827 195.467255,254.272827 
	C195.467255,257.402008 195.467255,260.306854 195.467255,263.675323 
	C179.986374,263.675323 164.757172,263.675323 149.308136,263.675323 
	C149.308136,275.895020 149.308136,287.647858 149.308136,299.671143 
	C163.094345,299.671143 176.720016,299.671143 190.668747,299.671143 
	C190.668747,302.814392 190.668747,305.709198 190.668747,309.063324 
	C177.091156,309.063324 163.370483,309.063324 149.079971,309.063324 
	C149.079971,321.423553 149.123276,333.342224 149.045609,345.260101 
	C149.028885,347.826782 148.575607,350.390656 147.842514,352.983826 
z"/>
<path fill="#030303" opacity="1.000000" stroke="none" 
	d="
M554.993896,316.000000 
	C555.018250,303.502258 555.039978,291.504547 555.083435,279.506866 
	C555.084473,279.218628 555.328247,278.931274 555.550476,278.441345 
	C558.582397,278.441345 561.697510,278.441345 565.349976,278.441345 
	C565.349976,282.203522 565.349976,285.958740 565.349976,289.713959 
	C565.722351,289.882629 566.094727,290.051331 566.467102,290.220001 
	C567.315369,289.220703 568.206970,288.254791 569.005188,287.217010 
	C577.361511,276.352448 594.903259,273.304443 606.433960,280.742676 
	C613.125122,285.059052 615.591431,291.912201 615.767334,299.169891 
	C616.198242,316.952393 615.908081,334.752350 615.908081,352.775208 
	C612.345886,352.775208 608.935974,352.775208 605.042480,352.775208 
	C605.042480,337.556488 605.106873,322.443939 604.995789,307.332672 
	C604.969055,303.697937 604.706909,299.992371 603.939880,296.452209 
	C602.714966,290.798645 598.839661,287.743652 593.120239,286.935944 
	C576.876160,284.641937 566.642456,293.765808 566.138611,311.522217 
	C565.798462,323.512482 566.040222,335.519226 566.022583,347.518616 
	C566.020142,349.161438 566.022278,350.804260 566.022278,352.725616 
	C562.389038,352.725616 558.979919,352.725616 554.993896,352.725616 
	C554.993896,340.700928 554.993896,328.600464 554.993896,316.000000 
z"/>
<path fill="#030303" opacity="1.000000" stroke="none" 
	d="
M887.022339,342.972839 
	C887.022278,346.448578 887.022278,349.429413 887.022278,352.707397 
	C883.428894,352.707397 880.017090,352.707397 876.295959,352.707397 
	C876.295959,328.115112 876.295959,303.399841 876.295959,278.457764 
	C879.541321,278.457764 882.653198,278.457764 886.539185,278.457764 
	C886.539185,282.253693 886.539185,286.079803 886.539185,291.247192 
	C888.099182,289.569519 888.707520,289.087280 889.099731,288.468140 
	C897.564209,275.106506 914.139038,275.138885 924.300476,279.124420 
	C933.248108,282.633820 936.498779,290.505981 936.749451,299.124725 
	C937.266602,316.907623 936.905151,334.716034 936.905151,352.759705 
	C933.380249,352.759705 929.969238,352.759705 926.042664,352.759705 
	C926.042664,342.761322 926.043762,332.818481 926.042358,322.875641 
	C926.041504,316.875732 926.081116,310.875366 926.024170,304.875977 
	C925.923523,294.274841 922.703430,288.819366 915.648560,287.142303 
	C904.858948,284.577423 894.003174,288.838715 890.244751,297.980255 
	C888.332336,302.631744 887.424255,307.926941 887.181519,312.984924 
	C886.710510,322.795868 887.030273,332.644745 887.022339,342.972839 
z"/>
<path fill="#030303" opacity="1.000000" stroke="none" 
	d="
M850.049194,283.172577 
	C850.049194,306.615479 850.049194,329.576019 850.049194,352.770599 
	C846.633484,352.770599 843.530762,352.770599 839.748657,352.770599 
	C839.748657,349.023163 839.748657,345.177216 839.748657,340.176208 
	C838.264404,341.547241 837.561768,341.945465 837.220581,342.548279 
	C829.560364,356.081818 813.474792,356.101562 803.328552,352.342773 
	C794.111206,348.928070 790.595642,341.080139 790.343994,332.212250 
	C789.839355,314.426819 790.194092,296.617035 790.194092,278.525269 
	C793.780518,278.525269 797.175415,278.525269 801.089294,278.525269 
	C801.089294,283.253815 801.089172,287.870941 801.089294,292.488098 
	C801.089600,303.819397 801.067749,315.150787 801.096680,326.481995 
	C801.125061,337.603485 804.559265,342.732758 813.037109,344.444153 
	C823.132446,346.482056 832.995605,341.778412 836.307251,332.615234 
	C837.914185,328.168823 838.727966,323.241821 838.875793,318.500397 
	C839.238953,306.846924 839.007996,295.174957 839.015808,283.510406 
	C839.016846,281.887451 839.015991,280.264496 839.015991,278.449219 
	C842.773865,278.449219 846.045654,278.449219 849.751953,278.449219 
	C849.849548,279.841461 849.949402,281.265839 850.049194,283.172577 
z"/>
<path fill="#010101" opacity="1.000000" stroke="none" 
	d="
M731.955872,313.000000 
	C731.955872,296.537323 731.955872,280.574646 731.955872,264.182312 
	C721.723755,264.182312 711.662903,264.182312 701.276978,264.182312 
	C701.276978,260.710938 701.276978,257.647369 701.276978,254.286758 
	C725.369324,254.286758 749.601379,254.286758 774.171997,254.286758 
	C774.171997,257.235413 774.171997,260.294281 774.171997,263.828339 
	C764.093872,263.828339 754.035095,263.828339 743.577515,263.828339 
	C743.577515,293.663574 743.577515,323.037506 743.577515,352.705078 
	C739.625305,352.705078 736.065796,352.705078 731.955872,352.705078 
	C731.955872,339.672211 731.955872,326.586090 731.955872,313.000000 
z"/>
<path fill="#080808" opacity="1.000000" stroke="none" 
	d="
M335.751160,278.217834 
	C337.087158,279.234619 338.585938,280.168182 338.735504,281.282837 
	C339.105194,284.037720 338.856781,286.875519 339.243317,290.400726 
	C346.837646,276.633270 358.014862,275.704834 371.386230,279.915131 
	C370.201385,283.750275 369.248444,286.834717 368.247284,290.075317 
	C367.161041,289.846741 366.523041,289.770966 365.922913,289.577576 
	C351.793518,285.025177 341.562927,291.181427 340.178497,306.024902 
	C339.146912,317.085663 339.461548,328.274078 339.235199,339.406830 
	C339.147461,343.721893 339.220856,348.040253 339.220856,352.685425 
	C335.651489,352.685425 332.258545,352.685425 328.502075,352.685425 
	C328.502075,328.190338 328.502075,303.523987 328.502075,278.217072 
	C330.768768,278.217072 333.034393,278.217072 335.751160,278.217834 
z"/>
<path fill="#3197CA" opacity="1.000000" stroke="none" 
	d="
M1110.851929,349.988281 
	C1109.349854,353.405121 1107.847778,356.821899 1105.851807,361.361938 
	C1102.839600,354.773987 1100.384399,349.404388 1098.057251,343.275146 
	C1098.456787,340.905060 1098.961792,339.295074 1098.964966,337.684113 
	C1099.014893,312.621979 1099.024902,287.559631 1098.950562,262.497620 
	C1098.944946,260.577759 1098.236450,258.659973 1097.854614,256.741241 
	C1100.300293,251.159363 1102.745972,245.577499 1105.681519,238.877350 
	C1107.434326,242.566452 1108.737061,245.308624 1109.902954,248.811066 
	C1109.511597,250.687302 1109.036377,251.803009 1109.034912,252.919327 
	C1108.994141,284.118469 1108.981812,315.317719 1109.079102,346.516571 
	C1109.082642,347.675659 1110.234985,348.831146 1110.851929,349.988281 
z"/>
<path fill="#060606" opacity="1.000000" stroke="none" 
	d="
M291.148529,291.016846 
	C291.148529,286.697021 291.148529,282.873993 291.148529,278.637878 
	C294.709808,278.637878 298.101288,278.637878 301.862427,278.637878 
	C301.862427,303.119202 301.862427,327.817169 301.862427,352.764130 
	C298.555237,352.764130 295.142639,352.764130 291.148529,352.764130 
	C291.148529,332.332336 291.148529,311.922974 291.148529,291.016846 
z"/>
<path fill="#39A4CF" opacity="1.000000" stroke="none" 
	d="
M1097.584473,256.971649 
	C1098.236450,258.659973 1098.944946,260.577759 1098.950562,262.497620 
	C1099.024902,287.559631 1099.014893,312.621979 1098.964966,337.684113 
	C1098.961792,339.295074 1098.456787,340.905060 1097.999268,342.922699 
	C1093.980591,335.445160 1090.148071,327.560455 1086.201538,318.952087 
	C1086.048462,305.795807 1086.009277,293.363129 1085.969971,280.930481 
	C1089.751465,273.020996 1093.532837,265.111511 1097.584473,256.971649 
z"/>
<path fill="#2A8CC6" opacity="1.000000" stroke="none" 
	d="
M1111.001221,349.656403 
	C1110.234985,348.831146 1109.082642,347.675659 1109.079102,346.516571 
	C1108.981812,315.317719 1108.994141,284.118469 1109.034912,252.919327 
	C1109.036377,251.803009 1109.511597,250.687302 1109.936646,249.168671 
	C1113.391846,255.601501 1116.676392,262.436981 1119.584595,269.726593 
	C1118.809082,271.007538 1118.064819,271.833008 1118.061646,272.661346 
	C1117.992310,290.683929 1117.969116,308.707062 1118.091064,326.729034 
	C1118.098511,327.831177 1119.379761,328.924713 1120.068237,330.022217 
	C1117.095581,336.456329 1114.123047,342.890442 1111.001221,349.656403 
z"/>
<path fill="#227FC2" opacity="1.000000" stroke="none" 
	d="
M1120.331543,329.795532 
	C1119.379761,328.924713 1118.098511,327.831177 1118.091064,326.729034 
	C1117.969116,308.707062 1117.992310,290.683929 1118.061646,272.661346 
	C1118.064819,271.833008 1118.809082,271.007538 1119.605103,270.090027 
	C1120.975464,271.845642 1122.242065,273.599243 1122.861450,275.557556 
	C1124.154419,279.645325 1126.857422,282.052460 1130.712646,283.826233 
	C1130.403320,295.252716 1130.201416,306.125214 1129.999512,316.997711 
	C1124.096680,319.117340 1122.976929,324.815247 1120.331543,329.795532 
z"/>
<path fill="#44B6D6" opacity="1.000000" stroke="none" 
	d="
M1085.627930,281.039368 
	C1086.009277,293.363129 1086.048462,305.795807 1086.029541,318.648621 
	C1080.646973,316.636017 1075.322388,314.203247 1070.113281,311.263672 
	C1070.490723,303.203064 1070.752686,295.649200 1071.014648,288.095398 
	C1075.771729,285.779694 1080.528931,283.463989 1085.627930,281.039368 
z"/>
<path fill="#1970BC" opacity="1.000000" stroke="none" 
	d="
M1130.360352,316.966736 
	C1130.201416,306.125214 1130.403320,295.252716 1130.942627,284.097229 
	C1134.732910,285.293549 1138.186035,286.772797 1141.833496,289.001587 
	C1142.059692,296.977234 1142.091309,304.203369 1142.123047,311.429443 
	C1138.322510,313.264893 1134.521973,315.100342 1130.360352,316.966736 
z"/>
<path fill="#53CBDE" opacity="1.000000" stroke="none" 
	d="
M1070.658325,288.140686 
	C1070.752686,295.649200 1070.490723,303.203064 1069.846313,311.023956 
	C1061.508911,307.739960 1053.553711,304.188904 1044.413818,300.108978 
	C1053.735352,295.815887 1062.018677,292.000946 1070.658325,288.140686 
z"/>
<path fill="#1261B6" opacity="1.000000" stroke="none" 
	d="
M1142.484131,311.322235 
	C1142.091309,304.203369 1142.059692,296.977234 1142.049072,289.268311 
	C1150.098633,292.328369 1158.126953,295.871216 1167.325806,299.930573 
	C1158.494263,304.001526 1150.669800,307.608246 1142.484131,311.322235 
z"/>
<path fill="#080808" opacity="1.000000" stroke="none" 
	d="
M293.134705,263.087921 
	C288.854218,260.370453 287.942383,256.807831 289.720184,252.646286 
	C291.219269,249.137222 294.313446,248.013611 297.862671,248.411804 
	C301.529633,248.823196 303.853455,251.024231 304.601837,254.672531 
	C305.880951,260.907898 300.646515,264.921417 293.134705,263.087921 
z"/>
<path fill="#FCFCFC" opacity="1.000000" stroke="none" 
	d="
M419.928955,263.956604 
	C421.414459,263.957336 422.411926,263.948364 423.409149,263.960297 
	C438.197327,264.136871 445.099182,273.461517 441.134644,287.808685 
	C439.490143,293.759918 435.556854,297.613495 429.605408,297.939484 
	C419.877991,298.472321 410.100067,298.083527 400.015869,298.083527 
	C400.015869,287.182800 400.015869,275.949951 400.015869,263.956573 
	C406.326782,263.956573 412.883789,263.956573 419.928955,263.956604 
z"/>
<path fill="#FCFCFC" opacity="1.000000" stroke="none" 
	d="
M253.967148,328.386047 
	C250.163971,341.857239 241.710938,347.538361 229.742752,345.074066 
	C224.243881,343.941833 220.733368,340.386444 219.985809,335.192505 
	C218.971985,328.148529 220.898071,323.673279 226.371750,320.963440 
	C228.273758,320.021790 230.372040,319.400909 232.444214,318.892487 
	C239.601120,317.136566 246.786041,315.494781 254.010147,313.797821 
	C254.010147,318.149261 254.010147,323.049561 253.967148,328.386047 
z"/>
<path fill="#FCFCFC" opacity="1.000000" stroke="none" 
	d="
M978.110229,289.938232 
	C983.757446,286.414398 989.535645,285.566986 995.643250,286.672577 
	C1004.389526,288.255737 1008.566223,292.893555 1010.370117,303.029633 
	C1010.688416,304.818115 1010.823669,306.639160 1011.078430,308.731934 
	C997.129211,308.731934 983.393372,308.731934 969.264771,308.731934 
	C969.984680,301.511902 971.704895,294.868256 978.110229,289.938232 
z"/>
<path fill="#FCFCFC" opacity="1.000000" stroke="none" 
	d="
M484.148315,337.163452 
	C482.470184,325.867249 485.503845,321.365509 496.109863,318.874573 
	C503.292450,317.187683 510.477539,315.511414 518.537048,313.625488 
	C518.015198,319.433533 518.241394,325.778290 516.741455,331.684753 
	C513.982422,342.549347 502.551880,348.467529 492.056824,344.599304 
	C489.005066,343.474487 486.826080,339.981781 484.148315,337.163452 
z"/>
</svg>